<?xml version="1.0" standalone="no"?>
<!DOCTYPE svg PUBLIC "-//W3C//DTD SVG 20010904//EN"
 "http://www.w3.org/TR/2001/REC-SVG-20010904/DTD/svg10.dtd">
<svg version="1.0" xmlns="http://www.w3.org/2000/svg"
 width="500.000000pt" height="500.000000pt" viewBox="0 0 500.000000 500.000000"
 preserveAspectRatio="xMidYMid meet">
<metadata>
Created by potrace 1.14, written by Peter Selinger 2001-2017
</metadata>
<g transform="translate(0.000000,500.000000) scale(0.100000,-0.100000)"
fill="#000000" stroke="none">
<path d="M2327 3964 c-2 -2 -23 -5 -46 -6 -23 -1 -44 -5 -47 -10 -3 -4 -9 -6
-14 -3 -5 3 -27 1 -47 -4 -21 -6 -47 -12 -58 -14 -27 -5 -107 -27 -125 -34 -8
-4 -17 -7 -20 -8 -30 -7 -88 -30 -97 -38 -7 -5 -13 -7 -13 -3 0 12 -225 -110
-304 -165 -42 -30 -88 -61 -102 -70 -13 -9 -21 -19 -17 -22 3 -4 1 -7 -6 -7
-7 0 -40 -27 -73 -60 -34 -33 -65 -60 -70 -60 -4 0 -8 -3 -8 -7 0 -5 -14 -23
-31 -40 -16 -18 -27 -33 -22 -33 4 0 -1 -6 -12 -14 -29 -20 -86 -102 -77 -111
4 -5 2 -5 -4 -2 -7 4 -15 -1 -19 -11 -3 -9 -5 -17 -4 -17 2 0 -9 -13 -24 -29
-15 -16 -27 -35 -27 -42 0 -8 -5 -14 -12 -14 -6 0 -8 -3 -5 -6 4 -4 -1 -19
-11 -33 -36 -55 -116 -236 -126 -286 -2 -11 -11 -40 -20 -65 -8 -25 -17 -58
-20 -75 -3 -16 -9 -43 -12 -60 -20 -102 -27 -180 -28 -315 0 -100 6 -203 19
-290 20 -136 140 -480 168 -480 4 0 6 -4 3 -8 -3 -5 2 -18 12 -28 9 -11 18
-26 20 -34 5 -23 121 -192 149 -217 13 -13 21 -23 18 -23 -4 0 35 -43 86 -95
50 -52 96 -92 102 -88 6 3 7 1 3 -6 -4 -6 0 -14 11 -18 9 -4 28 -18 40 -31 13
-14 23 -22 23 -19 0 6 24 -11 54 -38 18 -18 160 -103 175 -107 8 -2 23 -10 33
-18 10 -8 22 -15 26 -15 4 -1 23 -8 42 -17 36 -18 138 -58 155 -63 6 -1 17 -5
25 -8 8 -4 24 -8 35 -10 11 -2 27 -7 35 -10 24 -9 151 -36 200 -42 25 -3 63
-8 85 -12 49 -9 275 -7 330 2 56 9 184 32 220 40 58 12 140 40 147 50 4 5 8 7
8 3 0 -15 232 85 238 103 2 5 11 9 20 9 10 0 28 9 42 20 14 11 30 20 37 20 6
0 13 3 15 8 2 4 23 20 48 37 25 16 47 32 50 35 3 3 23 18 45 35 61 45 267 254
273 278 1 4 10 15 20 25 10 10 40 54 67 98 27 43 52 81 55 84 4 4 51 97 55
110 3 7 34 80 51 118 14 29 39 106 50 151 2 9 9 36 15 61 6 25 13 56 14 70 2
14 4 25 5 25 1 0 4 14 6 30 1 17 6 57 10 90 17 133 7 343 -22 493 -2 12 -6 34
-9 50 -6 27 -31 113 -42 142 -4 8 -6 18 -5 22 1 4 -6 24 -14 45 -20 47 -36 88
-34 88 1 0 -22 42 -49 93 -28 51 -51 97 -51 102 0 5 -9 15 -20 23 -11 8 -17
17 -13 20 3 4 1 7 -6 7 -7 0 -10 4 -6 9 3 5 -4 16 -15 24 -11 7 -18 16 -15 19
3 3 -8 20 -24 37 -17 18 -31 35 -32 39 -6 23 -13 32 -23 32 -7 0 -18 11 -24
25 -6 14 -16 25 -22 25 -5 0 -10 8 -10 17 0 9 -2 14 -5 11 -3 -3 -34 22 -68
56 -71 71 -181 160 -192 157 -4 -2 -11 2 -14 8 -24 39 -363 211 -442 225 -8 1
-30 7 -49 14 -113 37 -248 55 -437 57 -105 2 -193 1 -196 -1z"/>
</g>
</svg>
